<svg xmlns="http://www.w3.org/2000/svg" width="148" height="48" viewBox="0 0 148 48">
    <defs>
        <radialGradient id="a" cx="43.917%" cy="61.656%" r="79.01%" fx="43.917%" fy="61.656%" gradientTransform="scale(.78688 1) rotate(-29.929 .499 .394)">
            <stop offset="0%" stop-color="#0EF"/>
            <stop offset="100%" stop-color="#0019EA"/>
        </radialGradient>
    </defs>
    <g fill="none" fill-rule="evenodd">
        <path fill="#FFF" d="M-135-8h1440v5559H-135z"/>
        <path fill="#fff" d="M-135-8h1440v64H-135z"/>
        <g fill="#66D6FF">
            <path d="M72.214 20.104l-3.996 3.072c-.138.104-.229.2-.27.29a.734.734 0 0 0-.062.312c0 .104.015.199.047.285.03.087.105.175.223.265l4.224 3.321h2.013l-5.096-3.86 4.94-3.685h-2.023zm-6.051 7.545h1.318v-7.545h-1.318v7.545zM79.53 20.104c-.373 0-.705.053-.995.16-.291.108-.535.255-.732.442-.197.186-.346.41-.447.67-.1.259-.15.541-.15.845 0 .311.054.599.161.861.107.264.26.49.457.68.197.19.44.34.726.446.287.108.607.162.96.162h3.466c.354 0 .625.08.815.243.19.163.286.407.286.732 0 .298-.095.537-.286.716-.19.18-.461.27-.815.27h-5.655v1.318h5.655c.395 0 .74-.055 1.033-.166.294-.11.539-.264.732-.462.194-.197.34-.43.436-.7.097-.27.145-.564.145-.882 0-.733-.198-1.28-.596-1.64-.398-.36-.981-.54-1.75-.54h-3.455c-.29 0-.52-.08-.69-.239-.17-.159-.255-.384-.255-.674 0-.291.084-.517.249-.68.166-.163.401-.244.706-.244h5.418v-1.318H79.53zM95.867 20.104c-.373 0-.706.053-.996.16-.29.108-.535.255-.732.442-.197.186-.346.41-.446.67-.1.259-.15.541-.15.845 0 .311.053.599.16.861.107.264.26.49.456.68.198.19.44.34.728.446.286.108.607.162.958.162h3.468c.352 0 .624.08.814.243.19.163.286.407.286.732 0 .298-.095.537-.286.716-.19.18-.462.27-.814.27h-5.657v1.318h5.657c.394 0 .738-.055 1.032-.166a2 2 0 0 0 .732-.462c.194-.197.339-.43.436-.7.097-.27.145-.564.145-.882 0-.733-.2-1.28-.596-1.64-.398-.36-.981-.54-1.75-.54h-3.455c-.29 0-.522-.08-.69-.239-.17-.159-.255-.384-.255-.674 0-.291.083-.517.25-.68.165-.163.4-.244.705-.244h5.418v-1.318h-5.418zM108.311 27.65a3.563 3.563 0 0 1-1.459-.297 3.604 3.604 0 0 1-1.162-.81 3.642 3.642 0 0 1-.768-1.219 4.162 4.162 0 0 1-.275-1.525c0-.554.092-1.059.275-1.516.183-.456.44-.845.768-1.167.328-.322.716-.571 1.162-.747a3.923 3.923 0 0 1 1.46-.265h1.836c.547 0 1.046.09 1.5.27.453.18.842.432 1.168.758.324.325.577.714.757 1.167.18.453.27.953.27 1.5s-.092 1.055-.275 1.525c-.184.471-.44.878-.768 1.22a3.604 3.604 0 0 1-2.652 1.105h-1.837zm1.837-1.319c.346 0 .664-.062.955-.187a2.3 2.3 0 0 0 .753-.514c.21-.218.374-.478.492-.783a2.71 2.71 0 0 0 .177-.986c0-.353-.06-.68-.177-.98a2.263 2.263 0 0 0-.492-.774 2.26 2.26 0 0 0-.753-.504 2.465 2.465 0 0 0-.955-.181h-1.837c-.34 0-.652.06-.939.181a2.22 2.22 0 0 0-1.23 1.272 2.66 2.66 0 0 0-.177.986c0 .353.059.682.177.986.117.305.28.565.488.783.207.218.455.39.742.514.287.125.6.187.94.187h1.836zM116.987 27.65v-7.546h1.319v6.227h5.075v1.318zM134.268 27.65l-1.132-1.9h-3.57l.623-1.069h2.315l-1.682-2.823-3.425 5.791h-1.504l4.338-7.223a1 1 0 0 1 .27-.312.615.615 0 0 1 .373-.114c.145 0 .268.038.37.114.1.077.187.18.263.312l4.35 7.223h-1.589zM145.747 27.65l-1.91-2.098h-2.823V24.39h3.145c.478 0 .837-.13 1.08-.389.242-.26.363-.635.363-1.126 0-.491-.126-.856-.38-1.095-.251-.239-.606-.358-1.063-.358h-4.11v6.227h-1.307v-7.545h5.417c.429 0 .813.064 1.153.192.338.128.625.311.86.55.236.239.416.528.54.867.125.338.187.72.187 1.142 0 .63-.136 1.157-.41 1.582a2.294 2.294 0 0 1-1.147.919l2.273 2.293h-1.868z"/>
        </g>
        <path fill="url(#a)" d="M59.684.29c.151-.227.247-.29.31-.29.034 0 .058.017.077.037.175.286.35.517.52.686.06.105.03.321-.09.644-.32.785-.703 1.542-1.144 2.265-.197.294-.354.402-.48.329-.25-.25-.509-.59-.768-1.014-.085-.204-.024-.44.185-.72.518-.62.984-1.268 1.39-1.936zM43.45 8.438c.018-.015.047-.021.083-.021.095 0 .24.043.378.09.776.279 1.523.626 2.233 1.036.314.188.494.334.569.458.107.259.097.563-.023.902-.083.124-.272.096-.578-.086A15.762 15.762 0 0 0 43.885 9.6c-.313-.153-.46-.29-.452-.416.096-.274.104-.517.02-.723a.205.205 0 0 1-.003-.025zm11.652 9.966c.066-.352.315-.527.76-.535 1.064.067 2.128.096 3.17.082.438.03.695.216.784.572.11.867.187 1.757.232 2.66-.032.381-.284.59-.773.636a47.5 47.5 0 0 1-3.576-.092c-.498-.07-.75-.29-.773-.673.066-.9.125-1.786.176-2.65zM40.372 10.8a.404.404 0 0 1 .066-.005c.23 0 .4.203.53.632.282 1.151.47 2.328.562 3.515.01.514-.118.837-.393.986-.68.242-1.53.42-2.534.524-.423-.007-.653-.256-.703-.761a27.333 27.333 0 0 0-.273-3.574c-.03-.486.133-.764.5-.852.89-.094 1.642-.25 2.245-.465zm10.675 2.118c.098-.012.19-.018.278-.018.505 0 .823.202.97.609.251 1.193.5 2.397.745 3.6.033.52-.28.864-.954 1.051a71.392 71.392 0 0 1-4.884.79c-.672.03-1.077-.197-1.235-.697a66.677 66.677 0 0 1-.547-3.632c.004-.507.312-.816.942-.946a68.39 68.39 0 0 0 4.685-.757zm2.908-7.625a.9.9 0 0 1 .152-.015c.256 0 .418.14.502.434.16.854.263 1.723.303 2.598-.016.38-.193.63-.54.765-.85.24-1.819.454-2.9.633-.457.037-.707-.121-.765-.483a31.403 31.403 0 0 0-.186-2.624c.005-.363.218-.593.652-.702a25.713 25.713 0 0 0 2.782-.606zM38.458 24.29a.365.365 0 0 1 .155-.04c.18 0 .32.179.43.546.28 1.164.461 2.358.534 3.571.005.532-.113.9-.363 1.125-.623.427-1.434.833-2.42 1.207-.414.104-.658-.092-.726-.582-.06-1.22-.206-2.431-.435-3.62-.053-.504.112-.847.503-1.048.946-.36 1.724-.75 2.322-1.159zm.137-4.433c.06-.494.415-.734 1.081-.734a70.88 70.88 0 0 0 4.942.195c.7.055 1.073.324 1.143.822-.006 1.195-.015 2.33-.03 3.395-.075.442-.44.678-1.113.72a68.504 68.504 0 0 1-4.763-.19c-.646-.092-1.009-.357-1.109-.806a52.134 52.134 0 0 1-.151-3.402zm11.697 2.23a.864.864 0 0 1 .757-.394c.19 0 .407.045.652.134a65.83 65.83 0 0 0 4.64 1.885c.621.278.842.64.678 1.104a37.669 37.669 0 0 1-1.706 2.958c-.306.356-.768.439-1.412.253a64.787 64.787 0 0 1-4.472-1.816c-.594-.317-.815-.676-.673-1.097.49-.947 1.004-1.957 1.536-3.027zm-3.794 7.08a.412.412 0 0 1 .085-.01c.21 0 .256.2.146.623a18.94 18.94 0 0 1-1.361 3.25c-.259.441-.522.712-.829.854-.693.241-1.555.417-2.574.52-.412 0-.534-.2-.376-.613.488-1 .912-2.08 1.263-3.23.192-.481.51-.76.973-.855 1.057-.107 1.953-.29 2.673-.54zm14.085-23.35a.843.843 0 0 1 .166-.018c.207 0 .283.117.239.362-.21.735-.473 1.425-.784 2.065-.16.273-.389.46-.7.572-.728.208-1.559.394-2.484.55-.382.04-.55-.06-.511-.306.19-.613.35-1.28.478-1.997.098-.306.361-.505.807-.61a26.248 26.248 0 0 0 2.79-.618zm-49.47 3.994c.221-.097.414-.178.544-.19l.003.03c-.188.197-.29.401-.297.608-.03.065-.135.188-.716.505a20.66 20.66 0 0 0-2.967 1.913c-.339.251-.525.348-.622.322l-.01-.031c.012-.306.162-.608.44-.9.158-.154.427-.369.8-.637a17 17 0 0 1 2.824-1.62zm-.448 1.036c.329-.167.56-.251.687-.251.038 0 .068.007.087.022.099.208.293.415.588.617.053.07.064.204-.435.58a22.07 22.07 0 0 0-2.68 2.23c-.372.334-.661.454-.88.365-.438-.299-.725-.605-.872-.912-.02-.161.157-.394.543-.714a20.792 20.792 0 0 1 2.962-1.937zm-3.644 1.576c.15-.128.179-.152.24-.197l-.017.032c-.286.297-.441.606-.459.917-.042.16-.232.405-.581.745-.85.796-1.63 1.664-2.328 2.59-.168.216-.374.458-.467.416l-.007-.04c.016-.285.125-.569.324-.847l.557-.745c1.275-1.513 1.325-1.571 2.263-2.45l.475-.42zm-.793 1.616c.27-.239.46-.358.578-.358.037 0 .066.012.09.035.145.313.434.625.875.93.153.163.085.425-.21.801-.77.889-1.474 1.84-2.105 2.841-.287.403-.565.549-.823.434-.55-.38-.912-.77-1.094-1.16-.043-.2.076-.498.366-.913a20.395 20.395 0 0 1 2.323-2.61zm-3.761 4.01c.288-.481.662-1.122.98-1.604a1.555 1.555 0 0 0-.26.756c-.035.21-.173.526-.412.937a19.343 19.343 0 0 0-1.53 3.13c-.115.289-.191.454-.264.506l-.018-.058c.008-.14.035-.28.081-.418l.08-.23c.763-1.939.778-1.976 1.343-3.018zm.338.238c.194-.3.336-.447.437-.447.032 0 .06.015.084.045.183.395.549.79 1.107 1.175.215.208.224.527.027.974a22.988 22.988 0 0 0-1.385 3.295c-.184.456-.422.619-.705.486-.63-.435-1.042-.88-1.25-1.327-.065-.227-.015-.563.158-1.058a19.43 19.43 0 0 1 1.527-3.143zm-2.52 6.019c.162-.754.39-1.746.602-2.509a1.56 1.56 0 0 0-.044.285c-.016.183-.066.518-.208 1.076a18.85 18.85 0 0 0-.581 3.523c-.02.294-.031.411-.048.544L0 27.226a45.51 45.51 0 0 1 .286-2.92zm.385-.978c.1-.347.189-.521.263-.521.024 0 .047.018.068.055.21.449.624.897 1.258 1.334.262.238.348.594.266 1.091a21.686 21.686 0 0 0-.526 3.585c-.062.486-.237.662-.521.521-.66-.455-1.094-.922-1.311-1.39-.083-.238-.106-.591-.077-1.148.082-1.207.28-2.386.58-3.527zM11.707 11.9c.327-.22.593-.33.791-.33.04 0 .076.005.11.013a9 9 0 0 0 1.409.506c.19.09.155.288-.105.603a22.679 22.679 0 0 0-1.968 2.498c-.294.373-.609.53-.964.478-.79-.22-1.49-.469-2.08-.747-.21-.152-.155-.403.17-.765a22.145 22.145 0 0 1 2.637-2.256zm2.43.847c.28-.285.544-.424.807-.424l.056.001c.598.125 1.246.228 1.928.307.268.066.342.26.232.597-.348.82-.677 1.71-.983 2.66-.172.398-.466.588-.9.58a32.805 32.805 0 0 1-2.847-.452c-.343-.117-.407-.364-.192-.755a22.968 22.968 0 0 1 1.9-2.514zm3.3.507c.16-.33.39-.498.701-.509.715.052 1.454.081 2.2.084.31.034.489.216.543.556.053.835.101 1.74.147 2.706-.027.409-.262.628-.719.668-1.1-.003-2.19-.045-3.245-.122-.43-.074-.6-.308-.525-.715.28-.953.58-1.846.897-2.668zm6.41-.611h.007c.321 0 .583.156.799.477.457.808.889 1.687 1.292 2.627.126.404-.023.645-.456.739-1.07.12-2.168.201-3.271.241-.463-.025-.725-.235-.802-.643-.074-.963-.154-1.87-.238-2.704-.002-.34.146-.528.452-.572a29.7 29.7 0 0 0 2.217-.165zm3.013-.562a.635.635 0 0 1 .08-.005c.234 0 .5.129.81.39a22.343 22.343 0 0 1 2.231 2.43c.264.382.249.63-.044.76-.776.22-1.662.416-2.65.58-.433.027-.753-.15-.976-.54-.43-.936-.891-1.812-1.378-2.615-.169-.33-.125-.53.131-.607.67-.112 1.27-.243 1.796-.393zm2.584-1.78a.2.2 0 0 1 .037-.003c.178 0 .506.158.653.229a19.811 19.811 0 0 1 2.957 1.84c.389.305.598.533.64.693.002.306-.133.61-.396.903-.147.087-.406-.026-.79-.347a21.877 21.877 0 0 0-2.83-2.13c-.537-.357-.573-.486-.554-.552.179-.2.27-.405.269-.612l.014-.022zm-21.706 5.27c.27-.285.519-.426.752-.426.055 0 .11.008.163.024.597.282 1.31.538 2.113.763.31.132.363.392.166.795a28.712 28.712 0 0 0-1.548 3.05c-.24.44-.568.619-1.008.549-1.001-.28-1.891-.599-2.636-.952-.281-.191-.305-.5-.073-.942a23.632 23.632 0 0 1 2.071-2.861zm3.522 1.236c.238-.352.525-.525.873-.525.035 0 .071.002.108.006.898.187 1.872.343 2.897.464.415.09.581.339.51.757a49.081 49.081 0 0 0-.78 3.178c-.152.46-.49.677-1.035.662a41.818 41.818 0 0 1-3.616-.578c-.447-.145-.595-.439-.452-.901a29.011 29.011 0 0 1 1.495-3.063zm4.79.741c.153-.411.45-.615.908-.623a47.38 47.38 0 0 0 3.305.128c.47.044.729.269.794.688.038 1.025.074 2.101.105 3.215-.045.471-.351.723-.935.77a59.535 59.535 0 0 1-4.124-.16c-.549-.09-.799-.363-.764-.834.213-1.105.451-2.17.711-3.184zm9.498-.77h.038c.451 0 .765.191.956.585a39.35 39.35 0 0 1 1.004 3.153c.069.47-.167.754-.724.866-1.363.154-2.76.254-4.165.306-.586-.028-.91-.27-.992-.74-.052-1.114-.112-2.19-.176-3.213.02-.421.257-.654.722-.713 1.125-.04 2.245-.12 3.337-.244zm4.545-.842a.87.87 0 0 1 .134-.01c.302 0 .575.162.833.49.636.946 1.22 1.95 1.74 2.999.18.457.08.757-.308.917-.99.28-2.12.527-3.38.734-.544.04-.9-.162-1.09-.616a37.428 37.428 0 0 0-1.069-3.144c-.116-.416.025-.67.43-.781a25.126 25.126 0 0 0 2.71-.589zm2.887-1.217a.344.344 0 0 1 .131-.025c.187 0 .415.135.692.41.8.867 1.534 1.799 2.19 2.784.256.432.29.736.101.925-.523.357-1.203.695-2.028 1.007-.37.085-.679-.082-.94-.511a26.089 26.089 0 0 0-1.787-2.984c-.24-.395-.234-.657.015-.8.662-.25 1.206-.521 1.626-.806zM4.687 20.19c.202-.338.417-.501.666-.501.065 0 .132.011.202.033.754.359 1.654.681 2.669.964.407.164.547.471.426.939-.4 1.11-.741 2.259-1.018 3.431-.166.483-.486.676-.977.593-1.146-.319-2.162-.683-3.013-1.087-.334-.216-.437-.564-.315-1.065a23.29 23.29 0 0 1 1.36-3.308zm4.37 1.533c.184-.399.472-.594.878-.594.05 0 .1.002.153.008 1.135.237 2.366.434 3.662.586.531.11.777.396.75.872a61.073 61.073 0 0 0-.513 3.515c-.121.498-.48.73-1.098.71a47.422 47.422 0 0 1-4.131-.662c-.52-.162-.744-.487-.685-.995a32.61 32.61 0 0 1 .984-3.44zm5.944.92c.133-.466.476-.696 1.046-.701 1.36.1 2.761.156 4.178.162.592.05.916.305.986.778.028 1.153.05 2.338.067 3.54-.059.507-.414.778-1.08.827a68.468 68.468 0 0 1-4.713-.182c-.631-.099-.943-.395-.954-.905.128-1.197.285-2.374.47-3.52zm17.644-1.95c.065-.01.126-.016.185-.016.343 0 .598.182.793.561.449 1.097.83 2.235 1.14 3.398.083.506-.096.84-.549 1.02a35.66 35.66 0 0 1-3.863.84c-.614.048-.982-.168-1.124-.66a44.53 44.53 0 0 0-.699-3.494c-.057-.474.17-.77.694-.906 1.275-.21 2.42-.46 3.423-.743zM2.785 25.46c.117-.37.29-.55.538-.55.067 0 .139.012.216.038.857.407 1.88.773 3.032 1.094.474.185.689.52.656 1.026a30.324 30.324 0 0 0-.386 3.636c-.075.5-.358.702-.864.614-1.2-.335-2.266-.717-3.16-1.141-.361-.226-.54-.594-.546-1.127.073-1.215.247-2.416.515-3.59zm4.905 1.72c.12-.43.38-.635.816-.635.06 0 .123.004.188.011 1.29.269 2.689.492 4.158.664.612.123.918.43.94.936a62.583 62.583 0 0 0-.197 3.668c-.078.508-.427.745-1.07.723a49.956 49.956 0 0 1-4.334-.693c-.554-.17-.84-.508-.874-1.034.053-1.223.18-2.44.373-3.64zm20.05.081l.088-.001c.605 0 .953.228 1.065.696.128 1.212.21 2.436.241 3.662-.056.524-.413.842-1.092.97a66.01 66.01 0 0 1-4.992.364c-.7-.029-1.075-.292-1.149-.806a249.346 249.346 0 0 0-.036-3.677c.06-.505.415-.786 1.085-.86a62.968 62.968 0 0 0 4.79-.348zM.081 28.447a1.21 1.21 0 0 1 .042-.012l.028.046c.212.47.638.936 1.293 1.393.281.246.45.628.498 1.136.05 1.206.204 2.37.453 3.481.074.439-.02.59-.28.451-.631-.44-1.042-.89-1.246-1.343-.042-.103-.099-.244-.247-.817l-.038-.156a18.654 18.654 0 0 1-.525-3.634c-.01-.32-.006-.437.022-.545zm.878 5.5a1.008 1.008 0 0 1-.01-.038l.03.06c.203.449.613.896 1.24 1.334.285.234.517.577.688 1.021A17.286 17.286 0 0 0 4.231 39.3c.124.238.149.324.115.402-.05.017-.07.008-.156-.042-.44-.307-.76-.62-.963-.934l-.24-.378c-.998-1.77-1.037-1.838-1.493-2.937L.96 33.947zm3.984 7.061a46.709 46.709 0 0 1-1.424-1.846c.201.269.489.536.865.798.266.203.54.49.812.853.613.854 1.3 1.638 2.056 2.343.187.179.248.243.28.296a.242.242 0 0 1-.084-.038 4.122 4.122 0 0 1-.292-.223c-1.423-1.294-1.478-1.345-2.213-2.183zm4.036 3.545c-.13-.091-.26-.184-.387-.279a52.38 52.38 0 0 0-.875-.638 3.36 3.36 0 0 1-.206-.151c.589.473.774.615 1.468 1.068zm.869.561l-.869-.56c.283.196.572.383.869.56zM2.217 31.19c.012-.385.125-.571.352-.571.06 0 .13.013.208.04.888.426 1.949.808 3.146 1.145.505.192.783.536.85 1.048.037 1.2.15 2.346.335 3.432.027.438-.193.607-.67.517-1.153-.325-2.176-.693-3.032-1.103-.364-.217-.599-.546-.74-1.033-.247-1.11-.4-2.27-.45-3.475zm5.024 1.776c.035-.429.263-.638.692-.638.06 0 .123.004.19.012 1.341.283 2.796.516 4.328.698.64.126.986.434 1.06.94.016 1.197.073 2.333.165 3.404-.026.437-.336.636-.948.608a47.563 47.563 0 0 1-4.17-.673c-.541-.158-.866-.46-.995-.921a26.09 26.09 0 0 1-.322-3.43zm27.59-1.126a1.22 1.22 0 0 1 .216-.021c.35 0 .527.2.553.614a22.73 22.73 0 0 1-.39 3.443c-.136.468-.435.782-.915.96a36.562 36.562 0 0 1-3.917.845c-.61.054-.91-.132-.92-.568.13-1.074.212-2.213.24-3.41.078-.508.428-.831 1.069-.987a38.108 38.108 0 0 0 4.064-.876zM3.173 36.49c-.086-.324-.045-.481.13-.481.053 0 .12.014.2.044.85.407 1.868.774 3.014 1.097.494.178.811.478.97.914.26 1.015.589 1.965.976 2.842.115.35-.029.48-.441.396-1.021-.287-1.927-.613-2.685-.977-.334-.189-.607-.465-.858-.872a17.259 17.259 0 0 1-1.306-2.963zm4.756 1.682c-.044-.352.115-.525.486-.525.063 0 .133.006.21.016 1.285.27 2.679.494 4.146.668.62.115.977.377 1.093.799.13.993.295 1.916.49 2.76.024.342-.226.494-.763.465A42.046 42.046 0 0 1 9.9 41.76c-.488-.136-.824-.382-1.027-.754a18.665 18.665 0 0 1-.943-2.833zm6.482 1.01c.014-.403.32-.6.934-.6h.03c1.539.116 3.129.18 4.734.189.671.045 1.026.267 1.086.679-.02.987-.044 1.902-.071 2.737-.073.344-.4.526-.997.559a61.084 61.084 0 0 1-4.217-.168c-.576-.077-.92-.287-1.051-.639a31.74 31.74 0 0 1-.448-2.756zm13.274-.799l.132-.003c.555 0 .822.185.817.564a24.251 24.251 0 0 1-.64 2.776c-.165.358-.531.58-1.122.681a56.33 56.33 0 0 1-4.262.308c-.593-.014-.903-.187-.945-.53.045-.835.084-1.75.116-2.738.08-.414.445-.647 1.118-.712 1.613-.057 3.22-.17 4.786-.346zm10.689-2.94a.288.288 0 0 1 .128-.041c.122 0 .104.179.06.35-.011.043-.032.098-.044.14a17.44 17.44 0 0 1-1.395 3.008c-.257.415-.489.695-.731.883-.54.363-1.24.709-2.089 1.027-.34.097-.433-.029-.284-.384.45-.893.833-1.856 1.138-2.882.168-.442.454-.75.873-.947.952-.358 1.738-.746 2.344-1.154zM5.432 40.957c-.2-.307-.169-.388-.078-.388.021 0 .045.004.07.011.03.009.066.027.095.038.748.358 1.642.681 2.651.965.445.154.773.395 1.006.74.452.792.96 1.506 1.517 2.135.226.292.048.306-.08.288-.03-.004-.072-.016-.103-.023-.814-.229-1.536-.489-2.14-.779a4.598 4.598 0 0 1-.91-.665 15.623 15.623 0 0 1-2.028-2.322zm4.129 1.459c-.115-.266-.03-.398.26-.398.06 0 .127.006.204.016 1.13.238 2.357.435 3.647.588.55.098.89.302 1.04.625.226.755.481 1.428.761 2.01.07.233-.102.333-.522.306a33.651 33.651 0 0 1-2.944-.475 2.061 2.061 0 0 1-.983-.55 12.55 12.55 0 0 1-1.463-2.122zm5.625.877c-.03-.303.208-.45.729-.45h.049c1.353.102 2.752.158 4.165.166.59.035.898.205.944.517a76.332 76.332 0 0 1-.106 1.971c-.065.233-.328.356-.806.378a48.583 48.583 0 0 1-3.361-.135c-.465-.057-.765-.202-.917-.443a14.845 14.845 0 0 1-.697-2.004zm11.607-.625c.052-.003.102-.004.148-.004.456 0 .648.139.588.423-.294.76-.625 1.44-.986 2.032-.196.247-.525.404-1.004.48a45.17 45.17 0 0 1-3.398.246c-.47-.006-.712-.122-.734-.354.063-.569.122-1.23.174-1.972.082-.315.409-.494 1.001-.546a55.61 55.61 0 0 0 4.21-.305zm5.744-1.055c.083-.016.152-.025.209-.025.22 0 .255.127.115.39a13.61 13.61 0 0 1-1.713 2.184c-.292.274-.61.465-.973.586-.81.227-1.735.428-2.764.596-.416.046-.564-.046-.45-.282.386-.595.737-1.278 1.051-2.04.186-.33.546-.549 1.1-.67a32.032 32.032 0 0 0 3.425-.739zm3.66-1.531a.461.461 0 0 1 .104-.047c.022.064.03.089-.193.402a16.867 16.867 0 0 1-2.156 2.394c-.34.306-.609.53-.824.681-.43.29-.988.565-1.664.82-.085.026-.284.086-.163-.106.033-.052.09-.111.132-.157a13.798 13.798 0 0 0 1.758-2.198c.256-.352.564-.606.943-.774.838-.315 1.529-.656 2.062-1.015zM8.501 44.146c.001-.01.005-.022.007-.03.034.008.08.027.112.041.591.284 1.298.538 2.095.763.357.115.673.287.966.523a9.26 9.26 0 0 0 1.956 1.316c.143.073.175.091.22.128a.365.365 0 0 1-.124-.01 10.052 10.052 0 0 1-1.026-.344c-1.33-.577-1.439-.624-2.265-1.076a14.743 14.743 0 0 1-1.661-1.072 1.734 1.734 0 0 1-.28-.24zm3.474 1.11l.025-.001c.058 0 .128.013.18.021.894.188 1.863.344 2.883.465.437.072.733.208.907.42.306.48.635.866.983 1.152.04.04.123.124-.075.135a1.182 1.182 0 0 1-.165-.008 22.452 22.452 0 0 1-1.976-.319c-.3-.07-.584-.17-.87-.306a8.861 8.861 0 0 1-1.888-1.3c-.07-.072-.237-.24-.004-.259zm4.362.94c-.07-.189.08-.281.458-.281l.077.001c1.07.08 2.176.124 3.292.13.465.023.706.13.734.33a13.98 13.98 0 0 1-.134 1.104c-.052.107-.228.16-.555.17a32.394 32.394 0 0 1-2.256-.09c-.328-.035-.556-.104-.715-.22-.319-.282-.621-.667-.9-1.145zm9.091-.419c.056-.003.108-.005.154-.005.32 0 .424.086.317.263a5.686 5.686 0 0 1-1.268 1.182c-.208.12-.474.2-.813.249a30.53 30.53 0 0 1-2.28.163c-.32.001-.468-.047-.47-.153.08-.27.154-.64.224-1.106.076-.2.34-.316.81-.353a43.59 43.59 0 0 0 3.326-.24zm4.54-.833a.897.897 0 0 1 .165-.029.09.09 0 0 1 .077.036c-.01.073-.039.104-.18.226a10.917 10.917 0 0 1-2.204 1.376 7.002 7.002 0 0 1-.898.34c-.544.152-1.164.288-1.854.4-.146.02-.18.021-.238 0v-.043a.73.73 0 0 1 .085-.073c.478-.3.931-.7 1.353-1.192.222-.217.544-.367.987-.458a25.308 25.308 0 0 0 2.706-.583zm2.89-1.21l.045-.03a.515.515 0 0 1-.041.042c-.478.344-1.107.814-1.607 1.125-.998.588-1.86 1.097-3.314 1.685-.048.02-.098.039-.148.058-.023.008-.053.02-.077.026.072-.042.072-.042.307-.151.8-.372 1.558-.84 2.262-1.395.33-.25.639-.431.943-.558.663-.25 1.209-.519 1.63-.803zM14.76 47.187a.068.068 0 0 1 .034-.009.77.77 0 0 1 .11.018c.59.125 1.23.229 1.905.31.281.04.514.1.714.185.216.1.437.166.664.195a45.99 45.99 0 0 1-.868-.109 20.382 20.382 0 0 1-1.178-.209l-.602-.134a7.521 7.521 0 0 1-.55-.155.991.991 0 0 1-.229-.092zm2.946.464c.038-.023.084-.033.18-.033.033 0 .073.001.12.004.708.054 1.439.084 2.179.088.209.007.46.034.474.121-.033.11-.067.167-.102.167l-.364.001c-.551-.01-.551-.01-.905-.027-.258-.016-.602-.04-.86-.062a1.886 1.886 0 0 1-.671-.196.222.222 0 0 1-.054-.044.074.074 0 0 0 .003-.019zm5.966-.116c.068-.006.12-.009.158-.009.065 0 .094.009.11.027-.014.026-.027.034-.097.065a3.501 3.501 0 0 1-.807.208 48.78 48.78 0 0 1-.975.104c-.64.044-.64.044-.96.056l-.366.01c.059-.002.117-.059.173-.168.067-.072.256-.118.56-.136a29.4 29.4 0 0 0 2.204-.157zM14.546 8.335a11.096 11.096 0 0 1 2.594-.358c.117 0 .244.005.338.025a3.62 3.62 0 0 0-.44.232c-.052.018-.099.036-.847.127a17.238 17.238 0 0 0-3.261.71c-.403.128-.478.144-.546.148a.776.776 0 0 1 .017-.028c.273-.18.627-.352 1.055-.51.316-.115.575-.196.737-.246a9.484 9.484 0 0 1 .689-.195l-.336.095zM22 7.975a3.98 3.98 0 0 1 .522-.043c.08 0 .136.005.174.012.189.053.356.115.495.182-.03.025-.04.033-.66.046-.646.013-1.302.064-1.967.155a.169.169 0 0 0-.043-.017c.5-.151.994-.262 1.479-.335zm-.79-.134a1.086 1.086 0 0 1 .456-.095c.242.03.472.067.683.112l.019.007c-.011.026-.118.046-.423.097-.47.076-.945.191-1.429.348a.361.361 0 0 0-.06-.01c.256-.194.508-.346.755-.459zM20.3 7.8c-.008-.074.014-.121.151-.129.265.002.529.013.783.033.04.007.047.01.055.026-.012.03-.038.048-.147.104-.227.117-.458.27-.692.467a.554.554 0 0 0-.068-.004 6.11 6.11 0 0 0-.082-.497zm-1.104-.067c.26-.029.526-.047.793-.055.157.004.208.062.238.123.05.125.099.29.149.496-.023.001-.047.002-.07.005a5.171 5.171 0 0 0-.93-.441c-.2-.071-.22-.088-.223-.113a.143.143 0 0 1 .043-.015zm-.438.058a.808.808 0 0 1 .073-.002c.197 0 .402.06.476.08.326.106.658.25.993.434a.47.47 0 0 0-.057.012 12.352 12.352 0 0 0-1.636-.297c-.362-.04-.481-.055-.513-.08l.014-.01c.191-.052.408-.098.65-.137zm-.953.235c.047-.01.127-.02.26-.02a5.8 5.8 0 0 1 .495.027c.552.056 1.112.15 1.68.284a.12.12 0 0 0-.035.015c-.699-.07-1.389-.1-2.07-.094-.51.004-.638.004-.722-.013.1-.076.232-.14.392-.199zm.308.23c.108-.002.217-.002.325-.002.581 0 1.17.026 1.765.08-.007.006-.01.013-.008.02-.743.007-1.475.054-2.196.137-.588.067-.792.086-.841.063a.341.341 0 0 1 .107-.218c.043-.018.21-.062.848-.08zm-.11.255c.72-.089 1.452-.141 2.192-.156 0 .007.006.013.018.02-.67.088-1.331.213-1.982.373-.478.117-.739.173-.835.155a.59.59 0 0 1-.21-.22c.02-.022.14-.082.818-.172zM23 7.901c.105-.02.187-.026.388-.028a8.468 8.468 0 0 1 2.1.269l.51.138c.334.103.779.238 1.11.35.291.1.557.209.792.323.012.006.027.015.039.02-.075.002-.077.002-.463-.117a15.447 15.447 0 0 0-3.099-.616c-.72-.07-.78-.089-.835-.106a3.45 3.45 0 0 0-.558-.206L23 7.9zm-1.081-.278a2.234 2.234 0 0 1 .577-.015c.268.03.623.074.89.11.745.12.774.126 1.178.21l.361.08a7.895 7.895 0 0 0-1.638-.16c-.543 0-.61-.005-.693-.016a8.665 8.665 0 0 0-.77-.127.253.253 0 0 1-.048-.014.313.313 0 0 0 .003-.022c.038-.026.062-.03.14-.046zm3.287.448a8.053 8.053 0 0 0-.281-.062l.281.062zm-5.032-.574h.339c.555.01.555.01.904.027.254.016.588.04.85.06a1.886 1.886 0 0 0-.475.027c-.305.051-.397.048-.452.046a12.55 12.55 0 0 0-.881-.036c-.167-.009-.225-.065-.235-.076-.016-.032-.034-.048-.05-.048zm-.179.002h.002c.03 0 .06.016.091.048.002.003.031.066-.149.08-.3.01-.6.03-.893.062-.066.005-.15.01-.546-.03a3.384 3.384 0 0 0-.689-.006c.266-.029.585-.064.832-.087.642-.045.642-.045.96-.056l.392-.01zm-2.295.167l.111-.013a2.562 2.562 0 0 0-.11.013zm-.239.032a3.868 3.868 0 0 1 .91-.022c.183.021.197.036.224.064l-.041.015a6.931 6.931 0 0 0-.732.156c-.08.015-.15.023-.753.04-.751.02-1.481.119-2.187.29a19.691 19.691 0 0 1 2.58-.543zm-1.313.698c.11-.012.394-.044.589-.044.051 0 .096.002.13.007a.45.45 0 0 0-.114.255c-.075.038-.13.065-.817.218-1.196.26-2.354.623-3.462 1.078-.481.19-.644.221-.74.208-.005-.22.093-.415.273-.606.089-.071.309-.194.846-.378a17.685 17.685 0 0 1 3.295-.738zm-.205.474c.156-.034.56-.12.796-.12h.023a.952.952 0 0 0 .26.257c-.031.044-.06.085-.654.304-1.08.39-2.125.877-3.126 1.451-.277.151-.672.344-.882.272-.284-.194-.47-.393-.565-.592.008-.108.241-.265.694-.466a20.825 20.825 0 0 1 3.454-1.106zm-2.774-.085l.063-.024-.381.15c.101-.043.207-.085.318-.126zm-.629.246l.31-.12a4.788 4.788 0 0 0-.78.405c-.092.054-.242.137-.863.418-.88.396-1.72.864-2.51 1.4.198-.14.395-.278.57-.39.914-.553 1.86-1.125 3.273-1.713zm-4.13 2.3c.095-.067.19-.133.287-.198-.218.153-.435.31-.623.441.108-.08.17-.125.337-.243zm9.832-2.56c.648-.169 1.306-.301 1.973-.396a.188.188 0 0 0 .045.016c-.498.155-.989.349-1.473.576-.331.154-.563.248-.69.244a3.24 3.24 0 0 1-.506-.182l-.005-.014c.104-.093.477-.194.656-.243zm.6.21a11 11 0 0 1 1.422-.589.452.452 0 0 0 .06.01 6.12 6.12 0 0 0-.733.698c-.136.145-.296.295-.446.306a8.369 8.369 0 0 1-.694-.11.514.514 0 0 0-.018-.013c.011-.095.28-.235.41-.302zm.817.125c.221-.27.444-.506.67-.704a.72.72 0 0 0 .07.002c.038.21.076.455.112.735.012.131.01.309-.14.338-.269 0-.534-.011-.791-.03-.145-.046.023-.267.079-.341zm.746-.702a.573.573 0 0 0 .07-.004c.327.188.65.413.97.673.218.189.281.302.188.337-.26.03-.528.05-.797.06-.153-.023-.215-.19-.25-.333-.06-.28-.12-.524-.181-.733zm.075-.005a.382.382 0 0 0 .056-.012c.566.138 1.125.314 1.674.524.153.062.471.19.52.284-.003.004-.01.009-.012.013-.19.054-.406.102-.647.142-.153-.004-.358-.141-.557-.287A7.698 7.698 0 0 0 20.48 8.4zm.06-.014a.103.103 0 0 0 .033-.016c.71.068 1.412.176 2.101.32.19.04.586.127.727.215a1.346 1.346 0 0 1-.383.206c-.116.01-.357-.068-.76-.215a14.35 14.35 0 0 0-1.719-.51zm.043-.037c.103-.002.207-.002.31-.002.644 0 1.28.029 1.907.085.674.068.813.124.842.145a.333.333 0 0 1-.097.22c-.077.019-.324-.024-.849-.128a19.89 19.89 0 0 0-2.12-.301c.006-.006.01-.013.007-.02zm-.02-.021a17.057 17.057 0 0 1 2.27-.154h.021c.203.006.428.017.529.052.11.072.185.146.224.221-.077.017-.103.023-.812-.035a20.949 20.949 0 0 0-2.212-.065c-.002-.007-.008-.013-.02-.02zm-4.155 1.027c.496-.177.71-.207.799-.207.016 0 .028 0 .036.002.162.077.353.144.57.205l.013.04c-.062.084-.165.166-.408.323a15.99 15.99 0 0 0-2.294 1.76c-.213.18-.533.416-.854.378a8.544 8.544 0 0 1-1.353-.486c-.12-.104.02-.284.414-.536a19.544 19.544 0 0 1 3.077-1.479zm1.114.388c.41-.253.605-.293.686-.293h.002c.242.05.505.093.78.124.035.013.137.05-.08.39a15.089 15.089 0 0 0-1.145 1.95c-.118.197-.316.461-.7.463a20.92 20.92 0 0 1-1.853-.294c-.213-.083-.183-.265.096-.56a15.644 15.644 0 0 1 2.214-1.78zm1.514.233c.108-.153.273-.339.444-.355.289.02.588.032.89.033.124.023.208.152.247.381.06.583.117 1.255.172 2.005-.004.322-.152.494-.45.527a30.65 30.65 0 0 1-2.111-.08c-.276-.054-.353-.235-.239-.552.335-.737.685-1.394 1.047-1.96zm1.856-.33c.302-.012.603-.034.896-.067.102.006.282.068.558.336.522.548 1.027 1.19 1.51 1.91.177.313.13.496-.146.563-.697.08-1.411.131-2.129.158-.303-.023-.483-.19-.55-.51a45.54 45.54 0 0 0-.278-2.003c-.025-.23.022-.361.139-.388zm2.115-.294h.012c.074 0 .276.03.747.263a17.223 17.223 0 0 1 2.607 1.68c.334.28.41.462.23.554-.505.143-1.08.27-1.724.377-.289.012-.55-.13-.795-.431a14.445 14.445 0 0 0-1.61-1.898c-.317-.33-.227-.371-.194-.387.27-.045.514-.098.727-.158zm.77-.328a.279.279 0 0 1 .042-.003c.083 0 .296.025.808.179 1.131.359 2.226.815 3.272 1.36.424.235.605.407.537.51a4.973 4.973 0 0 1-1.032.516c-.277.05-.632-.172-.875-.342a17.486 17.486 0 0 0-2.675-1.658c-.41-.21-.492-.283-.521-.33.188-.083.333-.155.445-.232zm.27-.383c.018-.004.044-.009.099-.009.102 0 .299.017.715.093 1.193.231 2.347.566 3.451.993.455.185.71.333.76.441.001.2-.086.396-.258.587-.115.055-.375-.021-.842-.25a20.608 20.608 0 0 0-3.304-1.331c-.598-.187-.675-.232-.724-.263a.472.472 0 0 0 .103-.261zm-.292-.396c.022-.015.037-.025.172-.025.048 0 .111 0 .194.003 1.272.101 2.497.351 3.657.736.266.099.45.174.603.261.296.195.494.394.6.593-.011.01-.024.02-.033.03-.122-.011-.245-.042-.653-.192a20.042 20.042 0 0 0-3.445-.964c-.706-.134-.802-.168-.843-.192a.708.708 0 0 0-.252-.25z"/>
    </g>
</svg>
